<svg width="158" height="158" viewBox="0 0 158 158" fill="none" xmlns="http://www.w3.org/2000/svg">
<path d="M125.511 79C126.45 77.8644 127.388 76.7288 128.227 75.5438C136.571 64.1875 138.793 54.3125 134.596 46.9062C129.659 38.6606 117.661 36.0931 102.256 38.7594C96.874 24.095 88.5296 14.8125 79.0002 14.8125C69.4708 14.8125 61.1265 24.095 55.7446 38.7594C40.3396 36.0931 28.1933 38.7594 23.404 46.9062C19.2071 54.3125 21.429 64.1875 29.6252 75.5438C30.4646 76.7288 31.4027 77.8644 32.3408 79C31.4027 80.1356 30.4646 81.2713 29.6252 82.4563C21.429 93.8125 19.2071 103.688 23.404 111.094C26.959 117.266 34.7108 120.278 44.8327 120.278C48.4934 120.252 52.1447 119.905 55.7446 119.241C61.1758 134.053 69.4708 143.188 79.0002 143.188C88.5296 143.188 96.8246 133.905 102.256 119.241C105.856 119.905 109.507 120.252 113.168 120.278C123.043 120.278 131.041 117.266 134.596 111.094C138.793 103.786 136.571 93.615 128.227 82.4563C127.388 81.2713 126.45 80.1356 125.511 79ZM113.958 44.4375C121.018 44.4375 126.499 46.215 128.77 50.4119C131.041 54.6087 129.412 63.0025 122.845 71.8406C122.253 72.6306 121.611 73.47 120.92 74.26C116.779 70.0567 112.323 66.1776 107.588 62.6569C106.925 56.7971 105.786 51.0011 104.181 45.3263C107.409 44.7532 110.68 44.4558 113.958 44.4375ZM90.5046 98.75C86.8015 100.873 82.9502 102.848 79.0002 104.626C75.0502 102.848 71.199 100.873 67.4958 98.75C63.7528 96.6258 60.1267 94.3018 56.6333 91.7881C55.7116 83.1556 55.7116 74.4494 56.6333 65.8169C60.1358 63.4379 63.7617 61.2458 67.4958 59.25C71.199 57.1269 75.0502 55.1519 79.0002 53.3744C82.9502 55.1519 86.8015 57.1269 90.5046 59.25C94.2476 61.3742 97.8737 63.6982 101.367 66.2119C101.812 70.4603 102.043 74.7284 102.058 79C102.05 83.3375 101.819 87.6717 101.367 91.9856C97.8691 94.432 94.2431 96.69 90.5046 98.75ZM100.38 100.577C99.7755 104.175 98.9678 107.736 97.9602 111.242C94.6027 110.353 91.0971 109.267 87.5421 107.983C89.7146 106.897 91.8871 105.712 94.0596 104.478C96.2321 103.243 98.059 102.107 100.133 100.774L100.38 100.577ZM70.7546 107.983C67.1996 109.267 63.694 110.353 60.3365 111.242C59.3289 107.736 58.5211 104.175 57.9171 100.577C59.9908 101.91 62.0646 103.194 64.2371 104.478C66.4096 105.761 68.5327 107.094 70.7052 108.181L70.7546 107.983ZM49.3752 86.6038C46.4127 84.135 43.6477 81.6663 41.1296 79C43.6477 76.4325 46.4127 74.0625 49.3752 71.3963C49.3752 73.9144 49.3752 76.3338 49.3752 79C49.3752 81.6663 49.3752 83.9375 49.3752 86.6038ZM57.6702 57.2256C58.2743 53.6277 59.082 50.067 60.0896 46.5606C63.4471 47.4494 66.9527 48.5356 70.5077 49.8194C68.3352 50.9056 66.1627 52.0906 63.9902 53.325C61.8177 54.5594 59.9415 55.8925 57.8677 57.2256H57.6702ZM87.2952 49.8194C90.8502 48.5356 94.3558 47.4494 97.7133 46.5606C98.7209 50.067 99.5287 53.6277 100.133 57.2256C98.059 55.8925 95.9852 54.6087 93.8127 53.325C91.6402 52.0413 89.4677 50.9056 87.2952 49.8194ZM108.625 71.3963C111.588 73.865 114.353 76.3338 116.871 79C114.353 81.5675 111.588 83.9375 108.625 86.6038C108.625 84.0856 108.625 81.6663 108.625 79C108.625 76.3338 108.625 74.0625 108.625 71.3963ZM79.0002 21.3794C85.814 21.3794 91.5908 29.0819 95.689 40.1419C89.9873 41.6404 84.4082 43.5716 79.0002 45.9188C73.5923 43.5716 68.0132 41.6404 62.3115 40.1419C66.4096 29.0819 72.1865 21.3794 79.0002 21.3794ZM35.0565 71.6431C28.4896 62.805 26.3171 55.0037 29.1315 50.2144C31.9458 45.425 36.9821 44.4375 44.0427 44.4375C47.3538 44.4502 50.6576 44.7476 53.9177 45.3263C52.3135 51.0011 51.1741 56.7971 50.5108 62.6569C45.7156 66.1064 41.1927 69.9195 36.9821 74.0625C36.2908 73.2725 35.649 72.4331 35.0565 71.6431ZM29.1315 107.786C26.3171 102.848 28.4896 95.195 35.0565 86.3569C35.649 85.5669 36.2908 84.7275 36.9821 83.9375C41.1223 88.1408 45.5791 92.0199 50.3133 95.5406C51.0014 101.397 52.1404 107.191 53.7202 112.871C42.0677 114.896 32.5383 113.562 29.1315 107.786ZM79.0002 136.621C72.1865 136.621 66.4096 128.918 62.3115 117.809C68.0191 116.351 73.6 114.435 79.0002 112.081C84.4004 114.435 89.9814 116.351 95.689 117.809C91.5908 128.918 85.814 136.621 79.0002 136.621ZM128.869 107.786C125.462 113.711 115.933 114.896 104.181 112.723C105.761 107.042 106.9 101.248 107.588 95.3925C112.351 91.9231 116.841 88.0936 121.018 83.9375C121.71 84.7275 122.351 85.5669 122.944 86.3569C129.511 95.195 131.683 102.996 128.869 107.786Z" fill="#0083FF"/>
<path d="M79 88.875C84.4538 88.875 88.875 84.4538 88.875 79C88.875 73.5462 84.4538 69.125 79 69.125C73.5462 69.125 69.125 73.5462 69.125 79C69.125 84.4538 73.5462 88.875 79 88.875Z" fill="#0083FF"/>
</svg>
