<svg width="96" height="96" viewBox="0 0 96 96" fill="none" xmlns="http://www.w3.org/2000/svg">
<path fill-rule="evenodd" clip-rule="evenodd" d="M21.774 74.2258C33.0834 74.2258 42.3795 82.8484 43.4463 93.8783C43.5009 94.4411 43.3327 94.9465 42.9525 95.3655C42.572 95.7844 42.0851 96 41.5192 96H2.02872C1.46285 96 0.975912 95.7844 0.595475 95.3655C0.215413 94.9465 0.0474126 94.4411 0.101788 93.8783C1.16847 82.8484 10.4642 74.2258 21.774 74.2258Z" fill="#9DC6FB"/>
<path fill-rule="evenodd" clip-rule="evenodd" d="M19.8389 74.3108C30.2577 75.2286 38.5703 83.4846 39.5755 93.8783C39.6299 94.4411 39.4619 94.9465 39.0818 95.3655C38.7014 95.7844 38.2144 96 37.6486 96H41.5197C42.0856 96 42.5725 95.7844 42.9529 95.3655C43.333 94.9465 43.5012 94.4413 43.4466 93.8783C42.3799 82.8484 33.0839 74.2258 21.7744 74.2258C21.1221 74.2258 20.4766 74.2545 19.8389 74.3108Z" fill="#0083FF"/>
<path d="M22.6832 72.253C28.7426 71.7521 33.2487 66.4338 32.7478 60.3744C32.2468 54.3149 26.9286 49.8088 20.8691 50.3098C14.8096 50.8107 10.3036 56.129 10.8045 62.1884C11.3055 68.2479 16.6237 72.754 22.6832 72.253Z" fill="#0083FF"/>
<path fill-rule="evenodd" clip-rule="evenodd" d="M19.8389 50.442C24.9959 51.3566 28.9122 55.8617 28.9122 61.2813C28.9122 66.701 24.9959 71.2059 19.8389 72.1207C20.4672 72.2321 21.1141 72.2902 21.7744 72.2902C27.8545 72.2902 32.7833 67.3614 32.7833 61.2813C32.7833 55.2013 27.8545 50.2725 21.7744 50.2725C21.1139 50.2723 20.4672 50.3304 19.8389 50.442Z" fill="#0083FF"/>
<path fill-rule="evenodd" clip-rule="evenodd" d="M74.2253 74.2258C85.5348 74.2258 94.8308 82.8484 95.8975 93.8783C95.9521 94.4411 95.7839 94.9465 95.4038 95.3655C95.0234 95.7844 94.5364 96 93.9706 96H54.4799C53.914 96 53.4271 95.7844 53.0466 95.3655C52.6666 94.9465 52.4986 94.4411 52.553 93.8783C53.6198 82.8484 62.9155 74.2258 74.2253 74.2258Z" fill="#0083FF"/>
<path fill-rule="evenodd" clip-rule="evenodd" d="M72.29 74.3108C82.7088 75.2286 91.0215 83.4846 92.0268 93.8783C92.0812 94.4411 91.9132 94.9465 91.533 95.3655C91.1527 95.7844 90.6658 96 90.0997 96H93.9708C94.5367 96 95.0237 95.7844 95.4041 95.3655C95.7842 94.9465 95.9523 94.4413 95.898 93.8783C94.8311 82.8484 85.5352 74.2258 74.2256 74.2258C73.5733 74.2258 72.9277 74.2545 72.29 74.3108Z" fill="#0083FF"/>
<path d="M74.2259 72.2905C80.306 72.2905 85.2349 67.3615 85.2349 61.2814C85.2349 55.2013 80.306 50.2723 74.2259 50.2723C68.1457 50.2723 63.2168 55.2013 63.2168 61.2814C63.2168 67.3615 68.1457 72.2905 74.2259 72.2905Z" fill="#0083FF"/>
<path fill-rule="evenodd" clip-rule="evenodd" d="M74.2256 72.2902C80.3057 72.2902 85.2345 67.3614 85.2345 61.2813C85.2345 55.2013 80.3057 50.2725 74.2256 50.2725C73.5652 50.2725 72.9185 50.3306 72.29 50.4421C77.447 51.3568 81.3633 55.8618 81.3633 61.2815C81.3633 66.7012 77.447 71.2061 72.29 72.1209C72.9185 72.2321 73.5652 72.2902 74.2256 72.2902Z" fill="#0083FF"/>
<path fill-rule="evenodd" clip-rule="evenodd" d="M66.0993 21.8269H16.1506C14.8241 21.8269 13.7422 22.9088 13.7422 24.2353V43.2317C13.7422 43.653 13.9985 44.0113 14.3973 44.1475C14.7961 44.2836 15.218 44.1566 15.4756 43.8233L21.8238 35.608H66.0995C67.4261 35.608 68.5079 34.5261 68.5079 33.1995V24.2352C68.5078 22.9088 67.4259 21.8269 66.0993 21.8269Z" fill="#0083FF"/>
<path fill-rule="evenodd" clip-rule="evenodd" d="M65.3184 24.2351V33.1995C65.3184 34.526 64.2365 35.6079 62.9099 35.6079H66.0993C67.4259 35.6079 68.5077 34.526 68.5077 33.1995V24.2351C68.5077 22.9085 67.4259 21.8267 66.0993 21.8267H62.9099C64.2365 21.8267 65.3184 22.9087 65.3184 24.2351ZM15.4756 43.8232L21.8238 35.6079H18.6342L13.7422 41.9388V43.2315C13.7422 43.6528 13.9985 44.0111 14.3973 44.1472C14.7961 44.2835 15.218 44.1566 15.4756 43.8232Z" fill="#0083FF"/>
<path fill-rule="evenodd" clip-rule="evenodd" d="M60.9321 27.1689C61.7873 27.1689 62.4805 27.8623 62.4805 28.7173C62.4805 29.5723 61.7871 30.2657 60.9321 30.2657H48.6619C47.8067 30.2657 47.1136 29.5725 47.1136 28.7173C47.1136 27.8621 47.8067 27.1689 48.6619 27.1689H60.9321ZM26.947 27.1689C27.8022 27.1689 28.4954 27.8623 28.4954 28.7173C28.4954 29.5723 27.8022 30.2657 26.947 30.2657H21.3169C20.4617 30.2657 19.7686 29.5725 19.7686 28.7173C19.7686 27.8621 20.4617 27.1689 21.3169 27.1689H26.947ZM42.2301 27.1689C43.0853 27.1689 43.7785 27.8623 43.7785 28.7173C43.7785 29.5723 43.0853 30.2657 42.2301 30.2657H33.3788C32.5236 30.2657 31.8304 29.5725 31.8304 28.7173C31.8304 27.8621 32.5238 27.1689 33.3788 27.1689H42.2301Z" fill="#F7F7F7"/>
<path fill-rule="evenodd" clip-rule="evenodd" d="M16.1506 0H79.8504C81.1769 0 82.2588 1.08188 82.2588 2.40844V21.4048C82.2588 21.8261 82.0025 22.1844 81.6037 22.3206C81.2051 22.4567 80.783 22.3299 80.5254 21.9964L74.1772 13.7813H16.1506C14.8241 13.7813 13.7422 12.6994 13.7422 11.3728V2.40844C13.7422 1.08188 14.8241 0 16.1506 0Z" fill="#0083FF"/>
<path fill-rule="evenodd" clip-rule="evenodd" d="M78.8479 2.40844V19.8251L80.5258 21.9966C80.7835 22.3299 81.2053 22.4569 81.6041 22.3207C82.0029 22.1846 82.2593 21.8263 82.2593 21.405V2.40844C82.2591 1.08187 81.1774 0 79.8508 0H76.4395C77.766 0 78.8479 1.08187 78.8479 2.40844Z" fill="#0083FF"/>
<path fill-rule="evenodd" clip-rule="evenodd" d="M74.6832 5.34229C75.5384 5.34229 76.2316 6.03547 76.2316 6.89066C76.2316 7.74585 75.5382 8.43904 74.6832 8.43904H58.1537C57.2987 8.43904 56.6054 7.74585 56.6054 6.89066C56.6054 6.03566 57.2987 5.34229 58.1537 5.34229H74.6832ZM28.9013 5.34229C29.7565 5.34229 30.4497 6.03547 30.4497 6.89066C30.4497 7.74585 29.7565 8.43904 28.9013 8.43904H21.3169C20.4617 8.43904 19.7686 7.74585 19.7686 6.89066C19.7686 6.03566 20.4617 5.34229 21.3169 5.34229H28.9013ZM49.4894 5.34229C50.3446 5.34229 51.0377 6.03547 51.0377 6.89066C51.0377 7.74585 50.3444 8.43904 49.4894 8.43904H37.5659C36.7107 8.43904 36.0175 7.74585 36.0175 6.89066C36.0175 6.03566 36.7107 5.34229 37.5659 5.34229H49.4894Z" fill="#F7F7F7"/>
</svg>
