<svg width="99" height="90" viewBox="0 0 99 90" fill="none" xmlns="http://www.w3.org/2000/svg">
<path d="M40.1925 10.1174H58.8174V18.725H40.1925V10.1174ZM40.1925 41.7897H58.8174V33.1563H40.1925V41.7897ZM96.8477 85.6451C98.0531 85.6451 99 86.5923 99 87.803C99 88.9898 98.0531 89.9609 96.8477 89.9609H2.15228C0.96873 89.9609 0 88.99 0 87.803C0 86.5925 0.96873 85.6451 2.15228 85.6451H7.99328V20.2271C7.99328 19.1872 8.80694 18.3712 9.84644 18.3712H25.8046V85.6449H30.109V2.89149C30.109 1.29676 31.4002 0 32.9929 0H66.0287C67.6213 0 68.9125 1.29696 68.9125 2.89149V85.6453H73.2169V18.3629H89.1861C90.219 18.3629 91.0369 19.2064 91.0369 20.2186V85.6453L96.8477 85.6451ZM63.1233 68.0786C63.1233 64.4341 61.7027 61.0031 59.1417 58.4332C56.5592 55.8438 53.1587 54.4435 49.5215 54.4435C42.0104 54.4435 35.8983 60.55 35.8983 68.0786V85.6453H40.2027V68.0786C40.2027 62.9431 44.3777 58.7591 49.5215 58.7591C51.9965 58.7591 54.3423 59.73 56.0858 61.4781C57.8506 63.2475 58.8192 65.5777 58.8192 68.0788V85.6454H63.1235L63.1233 68.0786ZM63.1233 31.0073C63.1233 29.8011 62.1546 28.8494 60.971 28.8494H38.0506C36.8452 28.8494 35.8983 29.8011 35.8983 31.0073V43.954C35.8983 45.1409 36.8452 46.1119 38.0506 46.1119H60.9714C62.155 46.1119 63.1237 45.1409 63.1237 43.954L63.1233 31.0073ZM63.1233 7.96436C63.1233 6.77752 62.1546 5.80645 60.971 5.80645H38.0506C36.8452 5.80645 35.8983 6.77752 35.8983 7.96436V20.8897C35.8983 22.0766 36.8452 23.0476 38.0506 23.0476H60.9714C62.155 23.0476 63.1237 22.0768 63.1237 20.8897L63.1233 7.96436Z" fill="#0083FF"/>
<path d="M73.1738 16.787H86.2521C89.0135 16.787 91.2521 19.0256 91.2521 21.787V84.3652H73.1738V16.787Z" fill="#9DC6FB"/>
</svg>
