<svg width="785" height="783" viewBox="0 0 785 783" fill="none" xmlns="http://www.w3.org/2000/svg">
<path d="M783 211.205H724.317C720.084 233.73 710.266 241.815 687.581 241.815C489.313 241.815 291.043 241.877 92.7691 242C75.5471 242 60.9335 231.665 59.0804 211.425H0.0374076C0.0374076 201.151 -0.120662 191.317 0.213063 181.544C0.256974 180.217 2.50522 178.494 4.10359 177.756C33.5855 164.231 63.1553 150.89 92.6373 137.329C108.305 130.149 123.797 122.6 139.447 115.358C183.639 94.9919 227.843 74.6641 272.058 54.3744C295.185 43.7052 318.247 32.9041 341.245 21.9712C356.508 14.7559 371.666 7.32082 386.86 0H396.037C409.896 6.65289 423.701 13.42 437.621 19.9323C470.408 35.2419 503.23 50.4753 536.087 65.6325C576.187 84.1411 616.383 102.456 656.474 121C687.072 135.149 717.529 149.598 748.117 163.747C759.622 169.073 771.337 173.951 782.956 179.03L783 211.205Z" fill="#081131"/>
<path d="M2.31399 783C2.31399 772.861 3.19187 762.635 2.11209 752.609C0.637282 738.636 13.8755 722.358 32.3808 722.175C34.1366 722.175 35.945 722.175 37.727 722.175C274.891 722.175 512.055 722.116 749.218 722C766.196 722 777.863 728.393 785 743.466V783H2.31399Z" fill="#081131"/>
<path d="M59 691.956C59.7205 678.509 59 665.395 61.469 652.922C64.2192 639.062 76.0548 631.496 90.2803 631.356C99.1987 631.268 108.126 631.285 117.044 631.233C117.804 631.071 118.546 630.832 119.258 630.522V271H210.859V630.882H270.608V271.193H362.533V630.934H420.481V271.123H512.362V630.741H572.111V271.044H663.711V631.391C673.324 631.391 682.163 631.724 690.95 631.32C711.159 630.381 725.34 647.357 723.899 664.087C723.117 673.155 723.759 682.345 723.759 692L59 691.956Z" fill="#0083FF"/>
<rect x="103" y="405" width="578" height="117" fill="white"/>
<path d="M59.8571 463.022C59.8571 456.831 61.1369 451.325 63.6964 446.504C66.3154 441.623 70.0059 437.843 74.7678 435.165C79.5297 432.426 85.0059 431.057 91.1963 431.057C99.0534 431.057 105.661 433.17 111.018 437.397C116.375 441.563 119.827 447.248 121.375 454.45H102.536C101.405 452.069 99.8272 450.254 97.8034 449.004C95.8392 447.754 93.5475 447.129 90.9285 447.129C86.8809 447.129 83.6368 448.587 81.1963 451.504C78.8154 454.361 77.6249 458.2 77.6249 463.022C77.6249 467.903 78.8154 471.801 81.1963 474.718C83.6368 477.575 86.8809 479.004 90.9285 479.004C93.5475 479.004 95.8392 478.379 97.8034 477.129C99.8272 475.879 101.405 474.063 102.536 471.682H121.375C119.827 478.885 116.375 484.599 111.018 488.825C105.661 492.992 99.0534 495.075 91.1963 495.075C85.0059 495.075 79.5297 493.736 74.7678 491.057C70.0059 488.319 66.3154 484.539 63.6964 479.718C61.1369 474.837 59.8571 469.272 59.8571 463.022ZM159.84 495.254C153.947 495.254 148.531 493.885 143.59 491.146C138.65 488.349 134.721 484.51 131.804 479.629C128.947 474.688 127.519 469.123 127.519 462.932C127.519 456.742 128.947 451.206 131.804 446.325C134.721 441.385 138.65 437.545 143.59 434.807C148.531 432.069 153.947 430.7 159.84 430.7C165.792 430.7 171.209 432.069 176.09 434.807C181.03 437.545 184.929 441.385 187.786 446.325C190.644 451.206 192.072 456.742 192.072 462.932C192.072 469.123 190.644 474.688 187.786 479.629C184.929 484.51 181.03 488.349 176.09 491.146C171.15 493.885 165.733 495.254 159.84 495.254ZM159.84 479.004C164.304 479.004 167.816 477.545 170.376 474.629C172.995 471.712 174.304 467.813 174.304 462.932C174.304 457.932 172.995 454.004 170.376 451.147C167.816 448.23 164.304 446.772 159.84 446.772C155.316 446.772 151.775 448.23 149.215 451.147C146.656 454.004 145.376 457.932 145.376 462.932C145.376 467.873 146.656 471.801 149.215 474.718C151.775 477.575 155.316 479.004 159.84 479.004ZM217.439 481.236H236.992V494.629H199.939V431.682H217.439V481.236ZM261.297 481.236H280.85V494.629H243.797V431.682H261.297V481.236ZM305.155 445.7V455.968H325.244V469.272H305.155V480.611H327.923V494.629H287.655V431.682H327.923V445.7H305.155ZM376.748 452.397C375.737 450.73 374.338 449.45 372.552 448.557C370.826 447.664 368.772 447.218 366.391 447.218C361.987 447.218 358.505 448.647 355.945 451.504C353.445 454.361 352.195 458.2 352.195 463.022C352.195 468.438 353.534 472.575 356.213 475.432C358.951 478.23 362.909 479.629 368.088 479.629C374.219 479.629 378.594 476.861 381.213 471.325H363.624V458.736H396.302V475.7C394.933 479.033 392.909 482.158 390.231 485.075C387.612 487.992 384.278 490.402 380.231 492.307C376.183 494.152 371.57 495.075 366.391 495.075C360.082 495.075 354.487 493.736 349.606 491.057C344.784 488.319 341.034 484.539 338.356 479.718C335.737 474.837 334.427 469.272 334.427 463.022C334.427 456.831 335.737 451.325 338.356 446.504C341.034 441.623 344.784 437.843 349.606 435.165C354.427 432.426 359.993 431.057 366.302 431.057C374.219 431.057 380.766 432.962 385.945 436.772C391.123 440.581 394.338 445.789 395.588 452.397H376.748ZM421.644 445.7V455.968H441.734V469.272H421.644V480.611H444.412V494.629H404.144V431.682H444.412V445.7H421.644ZM514.309 431.682L492.613 494.629H470.202L448.417 431.682H467.167L481.452 477.129L495.649 431.682H514.309ZM537.262 445.7V455.968H557.351V469.272H537.262V480.611H560.03V494.629H519.762V431.682H560.03V445.7H537.262ZM600.552 494.629L588.052 471.414H586.177V494.629H568.677V431.682H596.266C601.326 431.682 605.612 432.575 609.124 434.361C612.635 436.087 615.284 438.498 617.07 441.593C618.856 444.629 619.748 448.051 619.748 451.861C619.748 456.147 618.558 459.926 616.177 463.2C613.856 466.414 610.433 468.706 605.909 470.075L620.106 494.629H600.552ZM586.177 459.45H594.838C597.219 459.45 599.005 458.885 600.195 457.754C601.385 456.623 601.981 454.986 601.981 452.843C601.981 450.819 601.356 449.242 600.106 448.111C598.915 446.92 597.159 446.325 594.838 446.325H586.177V459.45ZM651.457 495.254C644.135 495.254 638.123 493.527 633.421 490.075C628.719 486.563 626.189 481.563 625.832 475.075H644.492C644.671 477.277 645.326 478.885 646.457 479.897C647.588 480.908 649.046 481.414 650.832 481.414C652.439 481.414 653.748 481.027 654.76 480.254C655.832 479.42 656.367 478.289 656.367 476.861C656.367 475.016 655.504 473.587 653.778 472.575C652.052 471.563 649.254 470.432 645.385 469.182C641.278 467.813 637.945 466.504 635.385 465.254C632.885 463.944 630.683 462.069 628.778 459.629C626.933 457.129 626.01 453.885 626.01 449.897C626.01 445.849 627.022 442.397 629.046 439.54C631.07 436.623 633.867 434.42 637.439 432.932C641.01 431.444 645.058 430.7 649.582 430.7C656.903 430.7 662.736 432.426 667.082 435.879C671.486 439.272 673.838 444.063 674.135 450.254H655.117C655.058 448.349 654.463 446.92 653.332 445.968C652.26 445.016 650.861 444.539 649.135 444.539C647.826 444.539 646.754 444.926 645.921 445.7C645.088 446.474 644.671 447.575 644.671 449.004C644.671 450.194 645.117 451.236 646.01 452.129C646.963 452.962 648.123 453.706 649.492 454.361C650.861 454.956 652.885 455.73 655.564 456.682C659.552 458.051 662.826 459.42 665.385 460.789C668.004 462.099 670.236 463.974 672.082 466.414C673.986 468.795 674.939 471.831 674.939 475.522C674.939 479.272 673.986 482.635 672.082 485.611C670.236 488.587 667.528 490.938 663.957 492.664C660.445 494.391 656.278 495.254 651.457 495.254ZM700.574 445.7V455.968H720.663V469.272H700.574V480.611H723.342V494.629H683.074V431.682H723.342V445.7H700.574Z" fill="#081131"/>
</svg>
