<svg width="144" height="144" viewBox="0 0 144 144" fill="none" xmlns="http://www.w3.org/2000/svg">
<path d="M121.499 81C119.897 81.0016 118.313 81.3457 116.854 82.0093C115.395 82.6729 114.094 83.6405 113.039 84.8475L94.072 74.5875C95.1067 71.9735 95.6336 69.1863 95.6245 66.375C95.6373 63.1906 94.9741 60.0397 93.6786 57.1307C92.3831 54.2217 90.4849 51.6208 88.1095 49.5L106.424 27.765C107.609 28.3704 108.919 28.6866 110.249 28.6875C111.94 28.6874 113.592 28.1849 114.996 27.2439C116.401 26.3028 117.493 24.9656 118.136 23.4022C118.779 21.8387 118.942 20.1196 118.606 18.463C118.27 16.8064 117.448 15.2872 116.247 14.0982C115.045 12.9093 113.517 12.1043 111.857 11.7855C110.197 11.4667 108.48 11.6485 106.923 12.3077C105.367 12.967 104.041 14.074 103.115 15.4881C102.189 16.9022 101.704 18.5597 101.722 20.25C101.737 21.8476 102.205 23.4081 103.072 24.75L84.4645 46.8675C80.7241 44.6845 76.4333 43.6273 72.1069 43.8229C67.7806 44.0185 63.6026 45.4584 60.0745 47.97L45.877 31.59C48.1921 29.1281 49.4867 25.8794 49.4995 22.5C49.4952 19.5499 48.5247 16.6825 46.7365 14.3362C44.9482 11.9899 42.4406 10.294 39.5973 9.50777C36.7539 8.72157 33.7313 8.88839 30.9917 9.98271C28.2521 11.077 25.9464 13.0386 24.4272 15.5674C22.908 18.0963 22.2589 21.0531 22.5793 23.9857C22.8997 26.9183 24.1719 29.6653 26.2013 31.8064C28.2307 33.9475 30.9056 35.365 33.8168 35.8419C36.7281 36.3189 39.7154 35.8291 42.322 34.4475L56.6995 51.03C52.7844 55.1785 50.61 60.6708 50.6245 66.375C50.6269 67.3078 50.687 68.2396 50.8045 69.165L27.742 75.915C26.5481 74.1214 24.7504 72.8157 22.6755 72.235C20.6006 71.6544 18.3863 71.8373 16.4349 72.7507C14.4834 73.664 12.9244 75.2471 12.0411 77.2123C11.1578 79.1775 11.0088 81.3944 11.6212 83.4601C12.2336 85.5258 13.5668 87.3033 15.3784 88.4696C17.1901 89.6358 19.36 90.1134 21.4939 89.8156C23.6279 89.5178 25.5841 88.4644 27.0073 86.8467C28.4304 85.229 29.226 83.1545 29.2495 81C29.2718 80.7605 29.2718 80.5195 29.2495 80.28L51.7495 73.575C52.8185 76.7564 54.5857 79.6583 56.9216 82.0682C59.2575 84.478 62.103 86.3348 65.2495 87.5025L61.4245 108H60.7495C57.3943 108.003 54.1604 109.255 51.678 111.512C49.1956 113.769 47.6426 116.87 47.3219 120.209C47.0011 123.549 47.9355 126.889 49.9429 129.577C51.9503 132.265 54.8868 134.11 58.1801 134.751C61.4735 135.392 64.8875 134.784 67.7569 133.045C70.6263 131.306 72.7453 128.561 73.7009 125.345C74.6565 122.129 74.3802 118.672 72.9259 115.648C71.4717 112.625 68.9436 110.251 65.8345 108.99L69.7495 88.605C70.8577 88.787 71.979 88.8773 73.102 88.875C76.8566 88.8722 80.5509 87.9299 83.8481 86.1339C87.1453 84.338 89.9407 81.7454 91.9795 78.5925L110.789 88.74C110.048 90.9977 110.041 93.4323 110.768 95.6945C111.496 97.9567 112.921 99.9304 114.84 101.333C116.758 102.735 119.071 103.494 121.448 103.5C123.824 103.506 126.141 102.76 128.067 101.368C129.993 99.9762 131.429 98.0101 132.169 95.7518C132.909 93.4935 132.914 91.059 132.185 88.7973C131.456 86.5356 130.029 84.563 128.109 83.1622C126.19 81.7615 123.876 81.0045 121.499 81ZM80.0545 75.24C81.4005 74.1874 82.4891 72.8421 83.2376 71.3061C83.9861 69.77 84.3749 68.0837 84.3745 66.375C84.3745 65.7783 84.6115 65.206 85.0335 64.784C85.4554 64.362 86.0277 64.125 86.6245 64.125C87.2212 64.125 87.7935 64.362 88.2155 64.784C88.6374 65.206 88.8745 65.7783 88.8745 66.375C88.8791 68.7632 88.3359 71.1207 87.2867 73.266C86.2374 75.4114 84.71 77.2875 82.822 78.75C82.4261 79.0676 81.9345 79.2421 81.427 79.245C80.9585 79.2435 80.5022 79.0959 80.1216 78.8227C79.7411 78.5494 79.4553 78.1642 79.3042 77.7208C79.1531 77.2773 79.1442 76.7978 79.2787 76.3491C79.4132 75.9003 79.6844 75.5047 80.0545 75.2175V75.24Z" fill="#0083FF"/>
</svg>
