<svg width="91" height="91" viewBox="0 0 91 91" fill="none" xmlns="http://www.w3.org/2000/svg">
<path d="M29.877 1.54028V89.4051H85.2399C87.1537 89.4051 89.4054 88.112 89.4054 85.649V5.2835C89.4054 3.0677 88.3402 1.54028 85.9929 1.54028H29.877Z" fill="#0083FF"/>
<path d="M9.01953 5.08536V10.3114H15.5334C17.5386 10.3114 19.1532 11.926 19.1532 13.9312V17.4177C19.1532 19.4229 17.5386 21.0375 15.5334 21.0375H9.01953V40.197H15.5334C17.5386 40.197 19.1532 41.8116 19.1532 43.8168V47.3033C19.1532 49.3085 17.5386 50.9232 15.5334 50.9232H9.01953V70.0827H15.5334C17.5386 70.0827 19.1532 71.6973 19.1532 73.7025V77.189C19.1532 79.1942 17.5386 80.8059 15.5334 80.8059H9.01953V84.8565C9.01953 88.1008 10.9563 89.4051 13.6713 89.4051H29.8764V1.54028H12.6806C10.0691 1.54028 9.01953 2.61927 9.01953 5.08536Z" fill="#9DC6FB"/>
<path d="M5.21356 10.3114C3.20838 10.3114 1.59375 11.926 1.59375 13.9312V17.4177C1.59375 19.4229 3.20838 21.0375 5.21356 21.0375H15.5339C17.5391 21.0375 19.1537 19.4229 19.1537 17.4177V13.9312C19.1537 11.926 17.5391 10.3114 15.5339 10.3114H5.21356ZM5.21356 40.1971C3.20838 40.1971 1.59375 41.8117 1.59375 43.8169V47.3034C1.59375 49.3086 3.20838 50.9232 5.21356 50.9232H15.5339C17.5391 50.9232 19.1537 49.3086 19.1537 47.3034V43.8169C19.1537 41.8117 17.5391 40.1971 15.5339 40.1971H5.21356ZM5.21356 70.0827C3.20838 70.0827 1.59375 71.6973 1.59375 73.7025V77.189C1.59375 79.1942 3.20838 80.8059 5.21356 80.8059H15.5339C17.5391 80.8059 19.1537 79.1942 19.1537 77.189V73.7025C19.1537 71.6973 17.5391 70.0827 15.5339 70.0827H5.21356Z" fill="#0083FF"/>
<path d="M71.7227 13.2473H46.8446C44.847 13.2473 43.2275 14.8667 43.2275 16.8644V27.9965C43.2275 29.9941 44.847 31.6135 46.8446 31.6135H71.7227C73.7204 31.6135 75.3398 29.9941 75.3398 27.9965V16.8644C75.3398 14.8667 73.7204 13.2473 71.7227 13.2473Z" fill="#9DC6FB"/>
</svg>
