<svg width="36" height="27" viewBox="0 0 36 27" fill="none" xmlns="http://www.w3.org/2000/svg">
<path d="M34.9392 7.54697L26.7433 15.7442L18.9568 23.5306L16.4703 26.0172C15.4039 27.0824 13.2736 27.0824 12.2084 26.0172L1.55306 15.3619C0.864484 14.6733 0.62059 13.5399 0.822511 12.5383C0.931412 11.9881 1.17531 11.4766 1.55306 11.0989L4.03963 8.61341C5.10369 7.54708 7.23521 7.54708 8.30153 8.61341L14.3399 14.6516L22.63 6.3604L26.3757 2.61363L28.1908 0.799743C29.2571 -0.266581 31.3886 -0.266581 32.4526 0.799743L34.9392 3.28519C35.2296 3.57661 35.4418 3.94654 35.5733 4.35253C35.9261 5.43474 35.714 6.77218 34.9392 7.54697Z" fill="#0083FF"/>
</svg>
